# 3ds Max Wavefront OBJ Exporter v0.97b - (c)2007 guruware
# File Created: 21.01.2017 11:38:37

mtllib wawemesh.mtl

#
# object Cylinder001
#

v  1.8912 -0.0000 -0.0000
v  1.8363 -0.0000 -0.4526
v  1.6596 -0.0000 -0.4091
v  1.7093 -0.0000 -0.0000
v  1.6746 -0.0000 -0.8789
v  1.5135 -0.0000 -0.7943
v  1.4156 -0.0000 -1.2541
v  1.2794 -0.0000 -1.1335
v  1.0743 -0.0000 -1.5564
v  0.9710 -0.0000 -1.4067
v  0.6706 -0.0000 -1.7683
v  0.6061 -0.0000 -1.5982
v  0.2280 -0.0000 -1.8774
v  0.2060 -0.0000 -1.6968
v  -0.2280 -0.0000 -1.8774
v  -0.2060 -0.0000 -1.6968
v  -0.6706 -0.0000 -1.7683
v  -0.6061 -0.0000 -1.5982
v  -1.0743 -0.0000 -1.5564
v  -0.9710 -0.0000 -1.4067
v  -1.4156 -0.0000 -1.2541
v  -1.2794 -0.0000 -1.1335
v  -1.6746 -0.0000 -0.8789
v  -1.5135 -0.0000 -0.7943
v  -1.8363 -0.0000 -0.4526
v  -1.6596 -0.0000 -0.4091
v  -1.8912 -0.0000 0.0000
v  -1.7093 -0.0000 0.0000
v  -1.8363 -0.0000 0.4526
v  -1.6596 -0.0000 0.4091
v  -1.6746 -0.0000 0.8789
v  -1.5135 -0.0000 0.7944
v  -1.4156 -0.0000 1.2541
v  -1.2794 -0.0000 1.1335
v  -1.0743 -0.0000 1.5564
v  -0.9710 -0.0000 1.4067
v  -0.6706 -0.0000 1.7683
v  -0.6061 -0.0000 1.5982
v  -0.2280 -0.0000 1.8774
v  -0.2060 -0.0000 1.6968
v  0.2280 -0.0000 1.8774
v  0.2060 -0.0000 1.6968
v  0.6706 -0.0000 1.7683
v  0.6061 -0.0000 1.5982
v  1.0743 -0.0000 1.5564
v  0.9710 -0.0000 1.4067
v  1.4156 -0.0000 1.2541
v  1.2794 -0.0000 1.1335
v  1.6746 -0.0000 0.8789
v  1.5135 -0.0000 0.7943
v  1.8363 -0.0000 0.4526
v  1.6596 -0.0000 0.4091
# 52 vertices

vn 0.0000 1.0000 -0.0000
# 1 vertex normals

vt 0.7500 1.0000 1.0000
vt 0.7885 1.0000 1.0000
vt 0.8269 1.0000 1.0000
vt 0.8654 1.0000 1.0000
vt 0.9038 1.0000 1.0000
vt 0.9423 1.0000 1.0000
vt 0.9808 1.0000 1.0000
vt 1.0192 1.0000 1.0000
vt 0.0192 1.0000 1.0000
vt 0.0577 1.0000 1.0000
vt 0.0962 1.0000 1.0000
vt 0.1346 1.0000 1.0000
vt 0.1731 1.0000 1.0000
vt 0.2115 1.0000 1.0000
vt 0.2500 1.0000 1.0000
vt 0.2885 1.0000 1.0000
vt 0.3269 1.0000 1.0000
vt 0.3654 1.0000 1.0000
vt 0.4038 1.0000 1.0000
vt 0.4423 1.0000 1.0000
vt 0.4808 1.0000 1.0000
vt 0.5192 1.0000 1.0000
vt 0.5577 1.0000 1.0000
vt 0.5962 1.0000 1.0000
vt 0.6346 1.0000 1.0000
vt 0.6731 1.0000 1.0000
vt 0.7115 1.0000 1.0000
# 27 texture coords

g Cylinder001
usemtl wire_228153184
s off
f 1/1/1 2/2/1 3/2/1 4/1/1 
f 2/2/1 5/3/1 6/3/1 3/2/1 
f 5/3/1 7/4/1 8/4/1 6/3/1 
f 7/4/1 9/5/1 10/5/1 8/4/1 
f 9/5/1 11/6/1 12/6/1 10/5/1 
f 11/6/1 13/7/1 14/7/1 12/6/1 
f 13/7/1 15/8/1 16/8/1 14/7/1 
f 15/9/1 17/10/1 18/10/1 16/9/1 
f 17/10/1 19/11/1 20/11/1 18/10/1 
f 19/11/1 21/12/1 22/12/1 20/11/1 
f 21/12/1 23/13/1 24/13/1 22/12/1 
f 23/13/1 25/14/1 26/14/1 24/13/1 
f 25/14/1 27/15/1 28/15/1 26/14/1 
f 27/15/1 29/16/1 30/16/1 28/15/1 
f 29/16/1 31/17/1 32/17/1 30/16/1 
f 31/17/1 33/18/1 34/18/1 32/17/1 
f 33/18/1 35/19/1 36/19/1 34/18/1 
f 35/19/1 37/20/1 38/20/1 36/19/1 
f 37/20/1 39/21/1 40/21/1 38/20/1 
f 39/21/1 41/22/1 42/22/1 40/21/1 
f 41/22/1 43/23/1 44/23/1 42/22/1 
f 43/23/1 45/24/1 46/24/1 44/23/1 
f 45/24/1 47/25/1 48/25/1 46/24/1 
f 47/25/1 49/26/1 50/26/1 48/25/1 
f 49/26/1 51/27/1 52/27/1 50/26/1 
f 51/27/1 1/1/1 4/1/1 52/27/1 
# 26 polygons

